# xmcd
# 
# Track frame offsets:
#     150
#     16636
#     27020
#     45135
#     60490
#     68234
#     79433
#     94259
#     104412
#     117844
#     139232
#     152130
#     168954
#     187080
#     203406
#     215749
#     227987
#     241986
# 
# Disc length: 3421
# 
# Revision: 6
# Processed by: cddbd v1.5.2PL0 Copyright (c) Steve Scherf et al.
# Submitted via: fre:ac v1.0.31
# 
DISCID=ee0d5b12
DTITLE=John Denver - Sunshine On My Shoulders
DYEAR=2009
DGENRE=Country
TTITLE0=Leaving on a Jet Plane
TTITLE1=Grandma's Feather Bed
TTITLE2=Some Days Are Diamonds (Some Days Are Stone)
TTITLE3=Gospel Changes
TTITLE4=Junk
TTITLE5=Mother Nature's Son
TTITLE6=City Of New Orleans
TTITLE7=Paradise
TTITLE8=For baby, For Bobbie
TTITLE9=Angels From Montgomery
TTITLE10=This Old Guitar
TTITLE11=Matthew
TTITLE12=Looking For Space
TTITLE13=Calypso
TTITLE14=Late Nite Radio
TTITLE15=San Antonio Rose
TTITLE16=Starwood In Aspen
TTITLE17=Shanghai Breezes
EXTD=
EXTT0=
EXTT1=
EXTT2=
EXTT3=
EXTT4=
EXTT5=
EXTT6=
EXTT7=
EXTT8=
EXTT9=
EXTT10=
EXTT11=
EXTT12=
EXTT13=
EXTT14=
EXTT15=
EXTT16=
EXTT17=
PLAYORDER=
